<svg width="278" height="57" viewBox="0 0 278 57" fill="none" xmlns="http://www.w3.org/2000/svg">
<g clip-path="url(#clip0_9940_39450)">
<path d="M45.4926 19.8276H55.0749V28.6722C55.0023 43.679 42.734 56.0036 27.6344 56.0036C12.535 56.0036 0.266602 43.679 0.266602 28.5996C0.266602 13.5203 12.535 1.26827 27.6344 1.26827L55.2201 1.05078V10.8379H38.7412V32.587H29.304V10.7654H27.6344C17.7617 10.7654 9.7764 18.74 9.7764 28.5996C9.7764 38.4593 17.7617 46.434 27.6344 46.434C37.5072 46.434 45.4926 38.4593 45.4926 28.5996V19.8276Z" fill="#5BC4D1"/>
<path d="M266.812 14.224H275.249V16.8181H266.812V14.224ZM267.054 21.4972H276.631V24.1398H263.902V7.16895H276.291V9.81156H267.054V21.4972Z" fill="white"/>
<path d="M247.252 12.9148C249.272 12.9148 250.832 13.3674 251.931 14.2725C253.03 15.1776 253.58 16.5352 253.58 18.3454C253.58 20.2526 252.974 21.6992 251.761 22.6851C250.565 23.6549 248.892 24.1398 246.743 24.1398H239.445V7.16895H242.549V12.9148H247.252ZM246.597 21.7154C247.81 21.7154 248.747 21.4325 249.41 20.8668C250.089 20.3011 250.428 19.4768 250.428 18.3939C250.428 17.3272 250.097 16.5514 249.434 16.0666C248.771 15.5655 247.826 15.315 246.597 15.315H242.549V21.7154H246.597ZM256.028 24.1398V7.16895H259.132V24.1398H256.028Z" fill="white"/>
<path d="M231.509 7.16895H234.661V24.1398H231.509V7.16895ZM222.733 24.1398H219.581V7.16895H222.733V24.1398ZM231.752 16.8665H222.466V14.1755H231.752V16.8665Z" fill="white"/>
<path d="M211.669 7.16895H214.821V24.1398H211.669V7.16895ZM202.893 24.1398H199.741V7.16895H202.893V24.1398ZM211.912 16.8665H202.626V14.1755H211.912V16.8665Z" fill="white"/>
<path d="M186.409 14.224H194.846V16.8181H186.409V14.224ZM186.652 21.4972H196.228V24.1398H183.5V7.16895H195.889V9.81156H186.652V21.4972Z" fill="white"/>
<path d="M160.179 24.1398V7.16895H162.749L170.192 19.5576H168.81L176.132 7.16895H178.702L178.751 24.1398H175.744L175.72 11.8481H176.35L170.144 22.2003H168.738L162.434 11.8481H163.162V24.1398H160.179Z" fill="white"/>
<path d="M146.822 14.224H155.259V16.8181H146.822V14.224ZM147.065 21.4972H156.641V24.1398H143.913V7.16895H156.302V9.81156H147.065V21.4972Z" fill="white"/>
<path d="M126.725 24.1398V7.16895H133.707C135.21 7.16895 136.495 7.41139 137.562 7.89627C138.645 8.38115 139.477 9.07615 140.059 9.98127C140.641 10.8864 140.932 11.9612 140.932 13.2057C140.932 14.4503 140.641 15.5251 140.059 16.4301C139.477 17.3353 138.645 18.0303 137.562 18.5151C136.495 19 135.21 19.2425 133.707 19.2425H128.47L129.876 17.7636V24.1398H126.725ZM129.876 18.103L128.47 16.5756H133.561C134.951 16.5756 135.994 16.2847 136.689 15.7029C137.4 15.1049 137.756 14.2725 137.756 13.2057C137.756 12.1228 137.4 11.2905 136.689 10.7086C135.994 10.1267 134.951 9.8358 133.561 9.8358H128.47L129.876 8.28418V18.103Z" fill="white"/>
<path d="M108.66 24.1398V7.16895H116.249C118.156 7.16895 119.643 7.54877 120.71 8.30842C121.776 9.05191 122.31 10.1267 122.31 11.5329C122.31 12.9229 121.801 13.9977 120.782 14.7574C119.764 15.5009 118.422 15.8726 116.758 15.8726L117.194 14.9998C119.085 14.9998 120.548 15.3796 121.582 16.1393C122.617 16.8989 123.134 17.9979 123.134 19.4364C123.134 20.9072 122.592 22.0629 121.51 22.9033C120.427 23.7276 118.827 24.1398 116.709 24.1398H108.66ZM111.763 21.7154H116.612C117.711 21.7154 118.544 21.5133 119.109 21.1093C119.675 20.689 119.958 20.0506 119.958 19.194C119.958 18.3374 119.675 17.7151 119.109 17.3272C118.544 16.9231 117.711 16.7211 116.612 16.7211H111.763V21.7154ZM111.763 14.418H115.982C117 14.418 117.776 14.2159 118.309 13.8119C118.843 13.3916 119.109 12.7936 119.109 12.0178C119.109 11.2096 118.843 10.6035 118.309 10.1995C117.776 9.7954 117 9.59336 115.982 9.59336H111.763V14.418Z" fill="white"/>
<path d="M96.0364 24.3817C94.711 24.3817 93.4907 24.1635 92.3755 23.7271C91.2603 23.2907 90.2905 22.6846 89.4662 21.9088C88.6419 21.1168 88.0035 20.1955 87.5509 19.1449C87.0983 18.0782 86.8721 16.9145 86.8721 15.6537C86.8721 14.393 87.0983 13.2374 87.5509 12.1868C88.0035 11.12 88.6419 10.1987 89.4662 9.42293C90.2905 8.63096 91.2603 8.01677 92.3755 7.58037C93.4907 7.14398 94.7029 6.92578 96.0121 6.92578C97.3375 6.92578 98.5497 7.14398 99.6488 7.58037C100.764 8.01677 101.734 8.63096 102.558 9.42293C103.382 10.1987 104.021 11.12 104.473 12.1868C104.926 13.2374 105.152 14.393 105.152 15.6537C105.152 16.9145 104.926 18.0782 104.473 19.1449C104.021 20.2117 103.382 21.1329 102.558 21.9088C101.734 22.6846 100.764 23.2907 99.6488 23.7271C98.5497 24.1635 97.3456 24.3817 96.0364 24.3817ZM96.0121 21.6178C96.8688 21.6178 97.6607 21.4724 98.3881 21.1814C99.1154 20.8905 99.7457 20.4783 100.279 19.945C100.812 19.3954 101.225 18.7651 101.516 18.0539C101.823 17.3266 101.976 16.5265 101.976 15.6537C101.976 14.7809 101.823 13.9889 101.516 13.2778C101.225 12.5504 100.812 11.9201 100.279 11.3867C99.7457 10.8372 99.1154 10.4169 98.3881 10.126C97.6607 9.83508 96.8688 9.68962 96.0121 9.68962C95.1555 9.68962 94.3635 9.83508 93.6362 10.126C92.925 10.4169 92.2947 10.8372 91.7452 11.3867C91.2118 11.9201 90.7915 12.5504 90.4845 13.2778C90.1935 13.9889 90.0481 14.7809 90.0481 15.6537C90.0481 16.5104 90.1935 17.3024 90.4845 18.0297C90.7915 18.757 91.2118 19.3954 91.7452 19.945C92.2785 20.4783 92.9089 20.8905 93.6362 21.1814C94.3635 21.4724 95.1555 21.6178 96.0121 21.6178Z" fill="white"/>
<path d="M78.8447 24.3817C77.5516 24.3817 76.3475 24.1715 75.2323 23.7513C74.1332 23.3149 73.1715 22.7088 72.3472 21.933C71.5391 21.141 70.9087 20.2117 70.4562 19.1449C70.0036 18.0782 69.7773 16.9145 69.7773 15.6537C69.7773 14.393 70.0036 13.2293 70.4562 12.1625C70.9087 11.0958 71.5472 10.1745 72.3715 9.39869C73.1958 8.60671 74.1575 8.00061 75.2565 7.58037C76.3556 7.14398 77.5597 6.92578 78.8689 6.92578C80.2589 6.92578 81.5277 7.16822 82.6752 7.65311C83.8228 8.12183 84.7926 8.82491 85.5846 9.76235L83.548 11.6776C82.9338 11.015 82.2469 10.522 81.4873 10.1987C80.7276 9.85933 79.9033 9.68962 79.0144 9.68962C78.1254 9.68962 77.3092 9.83508 76.5657 10.126C75.8384 10.4169 75.2 10.8291 74.6504 11.3625C74.1171 11.8958 73.6968 12.5262 73.3897 13.2535C73.0988 13.9808 72.9533 14.7809 72.9533 15.6537C72.9533 16.5265 73.0988 17.3266 73.3897 18.0539C73.6968 18.7813 74.1171 19.4116 74.6504 19.945C75.2 20.4783 75.8384 20.8905 76.5657 21.1814C77.3092 21.4724 78.1254 21.6178 79.0144 21.6178C79.9033 21.6178 80.7276 21.4562 81.4873 21.1329C82.2469 20.7935 82.9338 20.2844 83.548 19.6056L85.5846 21.5451C84.7926 22.4664 83.8228 23.1695 82.6752 23.6543C81.5277 24.1392 80.2508 24.3817 78.8447 24.3817Z" fill="white"/>
<path d="M240.343 49.9998V31.8975H241.662V47.7758L253.997 31.8975H255.161V49.9998H253.842V34.1473L241.506 49.9998H240.343Z" fill="white"/>
<path d="M219.003 49.9998V31.8975H220.322V47.7758L232.657 31.8975H233.821V49.9998H232.502V34.1473L220.167 49.9998H219.003Z" fill="white"/>
<path d="M204.304 49.9998V31.8975H215.501V33.087H205.235L205.623 32.6733V49.9998H204.304Z" fill="white"/>
<path d="M190.014 50.129C188.669 50.129 187.42 49.9048 186.264 49.4566C185.126 48.9911 184.127 48.3446 183.264 47.5171C182.421 46.6723 181.764 45.6981 181.299 44.5949C180.833 43.4741 180.601 42.2587 180.601 40.9485C180.601 39.6382 180.833 38.4313 181.299 37.3281C181.764 36.2073 182.421 35.2334 183.264 34.4058C184.127 33.561 185.126 32.9145 186.264 32.4663C187.42 32.0008 188.669 31.7681 190.014 31.7681C191.359 31.7681 192.6 32.0008 193.738 32.4663C194.893 32.9145 195.894 33.5524 196.738 34.38C197.583 35.2075 198.237 36.1815 198.703 37.3022C199.186 38.4055 199.427 39.6209 199.427 40.9485C199.427 42.276 199.186 43.5 198.703 44.6207C198.237 45.724 197.583 46.6896 196.738 47.5171C195.894 48.3446 194.893 48.9911 193.738 49.4566C192.6 49.9048 191.359 50.129 190.014 50.129ZM190.014 48.9136C191.169 48.9136 192.238 48.7152 193.22 48.3188C194.203 47.9221 195.057 47.3619 195.781 46.6378C196.505 45.9137 197.066 45.0689 197.462 44.1035C197.875 43.1379 198.082 42.0864 198.082 40.9485C198.082 39.7934 197.875 38.7417 197.462 37.7936C197.066 36.828 196.505 35.9833 195.781 35.2592C195.057 34.5351 194.203 33.9748 193.22 33.5783C192.238 33.1817 191.169 32.9835 190.014 32.9835C188.86 32.9835 187.79 33.1817 186.807 33.5783C185.824 33.9748 184.963 34.5351 184.221 35.2592C183.497 35.9833 182.928 36.828 182.514 37.7936C182.118 38.7417 181.919 39.7934 181.919 40.9485C181.919 42.0864 182.118 43.1379 182.514 44.1035C182.928 45.0689 183.497 45.9137 184.221 46.6378C184.963 47.3619 185.824 47.9221 186.807 48.3188C187.79 48.7152 188.86 48.9136 190.014 48.9136Z" fill="white"/>
<path d="M160.321 50.1291C160.114 50.1291 159.908 50.1118 159.701 50.0774C159.511 50.0601 159.287 50.0256 159.028 49.9739L159.183 48.7585C159.477 48.8273 159.761 48.8619 160.037 48.8619C160.83 48.8619 161.468 48.5516 161.951 47.9309C162.451 47.3103 162.83 46.3362 163.089 45.0087C163.348 43.664 163.519 41.914 163.606 39.759L163.865 31.8975H175.735V49.9998H174.416V32.6733L174.804 33.087H164.692L165.08 32.6733L164.822 39.7332C164.752 41.5605 164.623 43.1295 164.434 44.4398C164.243 45.7328 163.968 46.8017 163.606 47.6465C163.26 48.4912 162.813 49.1205 162.262 49.5343C161.727 49.9308 161.08 50.1291 160.321 50.1291Z" fill="white"/>
<path d="M148.27 50.129C146.925 50.129 145.675 49.9048 144.52 49.4566C143.382 48.9911 142.382 48.3446 141.52 47.5171C140.675 46.6723 140.02 45.6981 139.555 44.5949C139.089 43.4741 138.856 42.2587 138.856 40.9485C138.856 39.6382 139.089 38.4313 139.555 37.3281C140.02 36.2073 140.675 35.2334 141.52 34.4058C142.382 33.561 143.382 32.9145 144.52 32.4663C145.675 32.0008 146.925 31.7681 148.27 31.7681C149.614 31.7681 150.856 32.0008 151.994 32.4663C153.149 32.9145 154.149 33.5524 154.993 34.38C155.838 35.2075 156.493 36.1815 156.959 37.3022C157.442 38.4055 157.683 39.6209 157.683 40.9485C157.683 42.276 157.442 43.5 156.959 44.6207C156.493 45.724 155.838 46.6896 154.993 47.5171C154.149 48.3446 153.149 48.9911 151.994 49.4566C150.856 49.9048 149.614 50.129 148.27 50.129ZM148.27 48.9136C149.425 48.9136 150.494 48.7152 151.476 48.3188C152.459 47.9221 153.312 47.3619 154.037 46.6378C154.761 45.9137 155.321 45.0689 155.717 44.1035C156.131 43.1379 156.338 42.0864 156.338 40.9485C156.338 39.7934 156.131 38.7417 155.717 37.7936C155.321 36.828 154.761 35.9833 154.037 35.2592C153.312 34.5351 152.459 33.9748 151.476 33.5783C150.494 33.1817 149.425 32.9835 148.27 32.9835C147.115 32.9835 146.046 33.1817 145.063 33.5783C144.08 33.9748 143.218 34.5351 142.477 35.2592C141.753 35.9833 141.184 36.828 140.77 37.7936C140.374 38.7417 140.175 39.7934 140.175 40.9485C140.175 42.0864 140.374 43.1379 140.77 44.1035C141.184 45.0689 141.753 45.9137 142.477 46.6378C143.218 47.3619 144.08 47.9221 145.063 48.3188C146.046 48.7152 147.115 48.9136 148.27 48.9136Z" fill="white"/>
<path d="M132.67 31.8975H133.989V49.9998H132.67V31.8975ZM120.567 49.9998H119.248V31.8975H120.567V49.9998ZM132.825 41.3883H120.412V40.2245H132.825V41.3883Z" fill="white"/>
<path d="M101.369 31.8975H102.92L108.377 39.5263L113.859 31.8975H115.437L109.205 40.6124L115.928 49.9998H114.351L108.377 41.7244L102.455 49.9998H100.903L107.575 40.6383L101.369 31.8975Z" fill="white"/>
<path d="M87.9596 40.2245H97.7607V41.3883H87.9596V40.2245ZM88.1148 48.8102H99.2865V49.9998H86.7959V31.8975H98.8986V33.087H88.1148V48.8102Z" fill="white"/>
<path d="M75.4377 49.9998V32.6733L75.8256 33.087H68.9209V31.8975H83.2735V33.087H76.3687L76.7566 32.6733V49.9998H75.4377Z" fill="white"/>
</g>
<defs>
<clipPath id="clip0_9940_39450">
<rect width="278" height="56.5698" fill="white"/>
</clipPath>
</defs>
</svg>
