<svg width="173" height="35" viewBox="0 0 173 35" fill="none" xmlns="http://www.w3.org/2000/svg">
<path d="M28.6187 12.0265H34.6823V17.4987C34.6364 26.7835 26.8731 34.4088 17.3182 34.4088C7.76333 34.4088 0 26.7835 0 17.4538C0 8.12413 7.76333 0.543742 17.3182 0.543742L34.7742 0.40918V6.46452H24.3465V19.9208H18.3747V6.41966H17.3182C11.0708 6.41966 6.01773 11.3536 6.01773 17.4538C6.01773 23.554 11.0708 28.488 17.3182 28.488C23.5656 28.488 28.6187 23.554 28.6187 17.4538V12.0265Z" fill="#5BC4D1"/>
<path d="M168.31 30.7702C167.478 30.7702 166.689 30.6315 165.942 30.3542C165.206 30.0662 164.636 29.6982 164.23 29.2502L164.598 28.6422C164.982 29.0368 165.505 29.3728 166.166 29.6502C166.838 29.9168 167.548 30.0502 168.294 30.0502C169.041 30.0502 169.649 29.9542 170.118 29.7622C170.598 29.5595 170.95 29.2928 171.174 28.9622C171.409 28.6315 171.526 28.2635 171.526 27.8582C171.526 27.3782 171.398 26.9942 171.142 26.7062C170.886 26.4182 170.55 26.1888 170.134 26.0182C169.718 25.8475 169.265 25.7035 168.774 25.5862C168.284 25.4688 167.788 25.3462 167.286 25.2182C166.785 25.0795 166.326 24.9035 165.91 24.6902C165.494 24.4768 165.158 24.1888 164.902 23.8262C164.657 23.4528 164.534 22.9728 164.534 22.3862C164.534 21.8528 164.673 21.3622 164.95 20.9142C165.228 20.4662 165.66 20.1035 166.246 19.8262C166.833 19.5488 167.585 19.4102 168.502 19.4102C169.121 19.4102 169.729 19.5008 170.326 19.6822C170.934 19.8635 171.452 20.1088 171.878 20.4182L171.574 21.0742C171.105 20.7542 170.598 20.5195 170.054 20.3702C169.521 20.2102 169.004 20.1302 168.502 20.1302C167.788 20.1302 167.196 20.2315 166.726 20.4342C166.257 20.6368 165.91 20.9088 165.686 21.2502C165.462 21.5808 165.35 21.9542 165.35 22.3702C165.35 22.8502 165.473 23.2342 165.718 23.5222C165.974 23.8102 166.31 24.0395 166.726 24.2102C167.142 24.3808 167.601 24.5248 168.102 24.6422C168.604 24.7595 169.1 24.8875 169.59 25.0262C170.081 25.1542 170.534 25.3248 170.95 25.5382C171.366 25.7515 171.702 26.0395 171.958 26.4022C172.214 26.7648 172.342 27.2342 172.342 27.8102C172.342 28.3328 172.198 28.8235 171.91 29.2822C171.622 29.7302 171.18 30.0928 170.582 30.3702C169.996 30.6368 169.238 30.7702 168.31 30.7702Z" fill="white"/>
<path d="M155.382 24.6422H161.446V25.3622H155.382V24.6422ZM155.478 29.9542H162.39V30.6902H154.662V19.4902H162.15V20.2262H155.478V29.9542Z" fill="white"/>
<path d="M149.943 30.6902V19.4902H150.759V30.6902H149.943Z" fill="white"/>
<path d="M142.354 30.7702C141.511 30.7702 140.733 30.6315 140.018 30.3542C139.303 30.0662 138.679 29.6662 138.146 29.1542C137.623 28.6422 137.218 28.0448 136.93 27.3622C136.642 26.6688 136.498 25.9115 136.498 25.0902C136.498 24.2688 136.642 23.5168 136.93 22.8342C137.218 22.1408 137.629 21.5382 138.162 21.0262C138.695 20.5142 139.314 20.1195 140.018 19.8422C140.733 19.5542 141.517 19.4102 142.37 19.4102C143.181 19.4102 143.933 19.5382 144.626 19.7942C145.319 20.0502 145.911 20.4342 146.402 20.9462L145.89 21.4902C145.399 21.0102 144.861 20.6688 144.274 20.4662C143.698 20.2635 143.069 20.1622 142.386 20.1622C141.661 20.1622 140.989 20.2848 140.37 20.5302C139.751 20.7755 139.213 21.1222 138.754 21.5702C138.295 22.0182 137.938 22.5408 137.682 23.1382C137.437 23.7355 137.314 24.3862 137.314 25.0902C137.314 25.7942 137.437 26.4448 137.682 27.0422C137.938 27.6395 138.295 28.1622 138.754 28.6102C139.213 29.0582 139.751 29.4048 140.37 29.6502C140.989 29.8955 141.661 30.0182 142.386 30.0182C143.047 30.0182 143.671 29.9168 144.258 29.7142C144.855 29.5115 145.399 29.1755 145.89 28.7062L146.354 29.3302C145.853 29.8102 145.25 30.1728 144.546 30.4182C143.853 30.6528 143.122 30.7702 142.354 30.7702ZM145.57 29.2502V25.1382H146.354V29.3302L145.57 29.2502Z" fill="white"/>
<path d="M128.916 30.7702C128.084 30.7702 127.31 30.6315 126.596 30.3542C125.892 30.0662 125.273 29.6662 124.74 29.1542C124.217 28.6315 123.812 28.0288 123.524 27.3462C123.236 26.6528 123.092 25.9008 123.092 25.0902C123.092 24.2795 123.236 23.5328 123.524 22.8502C123.812 22.1568 124.217 21.5542 124.74 21.0422C125.273 20.5195 125.892 20.1195 126.596 19.8422C127.31 19.5542 128.084 19.4102 128.916 19.4102C129.748 19.4102 130.516 19.5542 131.22 19.8422C131.934 20.1195 132.553 20.5142 133.076 21.0262C133.598 21.5382 134.004 22.1408 134.292 22.8342C134.59 23.5168 134.74 24.2688 134.74 25.0902C134.74 25.9115 134.59 26.6688 134.292 27.3622C134.004 28.0448 133.598 28.6422 133.076 29.1542C132.553 29.6662 131.934 30.0662 131.22 30.3542C130.516 30.6315 129.748 30.7702 128.916 30.7702ZM128.916 30.0182C129.63 30.0182 130.292 29.8955 130.9 29.6502C131.508 29.4048 132.036 29.0582 132.484 28.6102C132.932 28.1622 133.278 27.6395 133.524 27.0422C133.78 26.4448 133.908 25.7942 133.908 25.0902C133.908 24.3755 133.78 23.7248 133.524 23.1382C133.278 22.5408 132.932 22.0182 132.484 21.5702C132.036 21.1222 131.508 20.7755 130.9 20.5302C130.292 20.2848 129.63 20.1622 128.916 20.1622C128.201 20.1622 127.54 20.2848 126.932 20.5302C126.324 20.7755 125.79 21.1222 125.332 21.5702C124.884 22.0182 124.532 22.5408 124.276 23.1382C124.03 23.7248 123.908 24.3755 123.908 25.0902C123.908 25.7942 124.03 26.4448 124.276 27.0422C124.532 27.6395 124.884 28.1622 125.332 28.6102C125.79 29.0582 126.324 29.4048 126.932 29.6502C127.54 29.8955 128.201 30.0182 128.916 30.0182Z" fill="white"/>
<path d="M115.021 30.6902V19.4902H115.837V29.9542H122.285V30.6902H115.021Z" fill="white"/>
<path d="M106.369 30.7702C105.537 30.7702 104.764 30.6315 104.049 30.3542C103.345 30.0662 102.726 29.6662 102.193 29.1542C101.67 28.6315 101.265 28.0288 100.977 27.3462C100.689 26.6528 100.545 25.9008 100.545 25.0902C100.545 24.2795 100.689 23.5328 100.977 22.8502C101.265 22.1568 101.67 21.5542 102.193 21.0422C102.726 20.5195 103.345 20.1195 104.049 19.8422C104.764 19.5542 105.537 19.4102 106.369 19.4102C107.201 19.4102 107.969 19.5542 108.673 19.8422C109.388 20.1195 110.006 20.5142 110.529 21.0262C111.052 21.5382 111.457 22.1408 111.745 22.8342C112.044 23.5168 112.193 24.2688 112.193 25.0902C112.193 25.9115 112.044 26.6688 111.745 27.3622C111.457 28.0448 111.052 28.6422 110.529 29.1542C110.006 29.6662 109.388 30.0662 108.673 30.3542C107.969 30.6315 107.201 30.7702 106.369 30.7702ZM106.369 30.0182C107.084 30.0182 107.745 29.8955 108.353 29.6502C108.961 29.4048 109.489 29.0582 109.937 28.6102C110.385 28.1622 110.732 27.6395 110.977 27.0422C111.233 26.4448 111.361 25.7942 111.361 25.0902C111.361 24.3755 111.233 23.7248 110.977 23.1382C110.732 22.5408 110.385 22.0182 109.937 21.5702C109.489 21.1222 108.961 20.7755 108.353 20.5302C107.745 20.2848 107.084 20.1622 106.369 20.1622C105.654 20.1622 104.993 20.2848 104.385 20.5302C103.777 20.7755 103.244 21.1222 102.785 21.5702C102.337 22.0182 101.985 22.5408 101.729 23.1382C101.484 23.7248 101.361 24.3755 101.361 25.0902C101.361 25.7942 101.484 26.4448 101.729 27.0422C101.985 27.6395 102.337 28.1622 102.785 28.6102C103.244 29.0582 103.777 29.4048 104.385 29.6502C104.993 29.8955 105.654 30.0182 106.369 30.0182Z" fill="white"/>
<path d="M88.584 30.6902V19.4902H89.272L97.256 29.6822H96.888V19.4902H97.704V30.6902H97.032L89.032 20.4982H89.4V30.6902H88.584Z" fill="white"/>
<path d="M83.8567 19.4902H84.6727V30.6902H83.8567V19.4902ZM76.3687 30.6902H75.5527V19.4902H76.3687V30.6902ZM83.9527 25.3622H76.2727V24.6422H83.9527V25.3622Z" fill="white"/>
<path d="M68.8373 30.7702C68.0053 30.7702 67.232 30.6315 66.5173 30.3542C65.8133 30.0662 65.2 29.6662 64.6773 29.1542C64.1546 28.6422 63.7493 28.0448 63.4613 27.3622C63.1733 26.6688 63.0293 25.9115 63.0293 25.0902C63.0293 24.2688 63.1733 23.5168 63.4613 22.8342C63.7493 22.1408 64.1546 21.5382 64.6773 21.0262C65.2106 20.5142 65.8293 20.1195 66.5333 19.8422C67.2373 19.5542 68.0053 19.4102 68.8373 19.4102C69.6266 19.4102 70.3626 19.5382 71.0453 19.7942C71.7386 20.0502 72.3306 20.4395 72.8213 20.9622L72.3093 21.4902C71.8293 21.0208 71.296 20.6848 70.7093 20.4822C70.1333 20.2688 69.52 20.1622 68.8693 20.1622C68.1546 20.1622 67.488 20.2848 66.8693 20.5302C66.2613 20.7755 65.728 21.1222 65.2693 21.5702C64.8213 22.0182 64.4693 22.5408 64.2133 23.1382C63.968 23.7355 63.8453 24.3862 63.8453 25.0902C63.8453 25.7942 63.968 26.4448 64.2133 27.0422C64.4693 27.6395 64.8213 28.1622 65.2693 28.6102C65.728 29.0582 66.2613 29.4048 66.8693 29.6502C67.488 29.8955 68.1546 30.0182 68.8693 30.0182C69.52 30.0182 70.1333 29.9168 70.7093 29.7142C71.296 29.5008 71.8293 29.1542 72.3093 28.6742L72.8213 29.2022C72.3306 29.7248 71.7386 30.1195 71.0453 30.3862C70.3626 30.6422 69.6266 30.7702 68.8373 30.7702Z" fill="white"/>
<path d="M54.1634 24.6422H60.2274V25.3622H54.1634V24.6422ZM54.2594 29.9542H61.1714V30.6902H53.4434V19.4902H60.9314V20.2262H54.2594V29.9542Z" fill="white"/>
<path d="M46.573 30.6902V20.2262H42.541V19.4902H51.421V20.2262H47.389V30.6902H46.573Z" fill="white"/>
<path d="M102.906 14.6982V4.19824H104.511L111.096 12.2832H110.301V4.19824H112.236V14.6982H110.631L104.046 6.61324H104.841V14.6982H102.906Z" fill="white"/>
<path d="M91.9355 14.6982V4.19824H96.2555C97.1855 4.19824 97.9805 4.34824 98.6405 4.64824C99.3105 4.94824 99.8255 5.37824 100.186 5.93824C100.546 6.49824 100.726 7.16324 100.726 7.93324C100.726 8.70324 100.546 9.36824 100.186 9.92824C99.8255 10.4782 99.3105 10.9032 98.6405 11.2032C97.9805 11.4932 97.1855 11.6382 96.2555 11.6382H93.0155L93.8855 10.7532V14.6982H91.9355ZM98.8055 14.6982L96.1505 10.8882H98.2355L100.906 14.6982H98.8055ZM93.8855 10.9632L93.0155 10.0332H96.1655C97.0255 10.0332 97.6705 9.84824 98.1005 9.47824C98.5405 9.10824 98.7605 8.59324 98.7605 7.93324C98.7605 7.26324 98.5405 6.74824 98.1005 6.38824C97.6705 6.02824 97.0255 5.84824 96.1655 5.84824H93.0155L93.8855 4.88824V10.9632Z" fill="white"/>
<path d="M83.6867 8.56324H88.9067V10.1682H83.6867V8.56324ZM83.8367 13.0632H89.7617V14.6982H81.8867V4.19824H89.5517V5.83324H83.8367V13.0632Z" fill="white"/>
<path d="M69.4941 14.6982V4.19824H74.0841C75.2241 4.19824 76.2241 4.41824 77.0841 4.85824C77.9441 5.29824 78.6141 5.90824 79.0941 6.68824C79.5741 7.46824 79.8141 8.38824 79.8141 9.44824C79.8141 10.4982 79.5741 11.4182 79.0941 12.2082C78.6141 12.9882 77.9441 13.5982 77.0841 14.0382C76.2241 14.4782 75.2241 14.6982 74.0841 14.6982H69.4941ZM71.4441 13.0482H73.9941C74.7841 13.0482 75.4641 12.8982 76.0341 12.5982C76.6141 12.2982 77.0591 11.8782 77.3691 11.3382C77.6891 10.7982 77.8491 10.1682 77.8491 9.44824C77.8491 8.71824 77.6891 8.08824 77.3691 7.55824C77.0591 7.01824 76.6141 6.59824 76.0341 6.29824C75.4641 5.99824 74.7841 5.84824 73.9941 5.84824H71.4441V13.0482Z" fill="white"/>
<path d="M61.7872 14.8479C60.9672 14.8479 60.2122 14.7129 59.5222 14.4429C58.8322 14.1729 58.2322 13.7979 57.7222 13.3179C57.2122 12.8279 56.8172 12.2579 56.5372 11.6079C56.2572 10.9479 56.1172 10.2279 56.1172 9.44785C56.1172 8.66785 56.2572 7.95285 56.5372 7.30285C56.8172 6.64285 57.2122 6.07285 57.7222 5.59285C58.2322 5.10285 58.8322 4.72285 59.5222 4.45285C60.2122 4.18285 60.9622 4.04785 61.7722 4.04785C62.5922 4.04785 63.3422 4.18285 64.0222 4.45285C64.7122 4.72285 65.3122 5.10285 65.8222 5.59285C66.3322 6.07285 66.7272 6.64285 67.0072 7.30285C67.2872 7.95285 67.4272 8.66785 67.4272 9.44785C67.4272 10.2279 67.2872 10.9479 67.0072 11.6079C66.7272 12.2679 66.3322 12.8379 65.8222 13.3179C65.3122 13.7979 64.7122 14.1729 64.0222 14.4429C63.3422 14.7129 62.5972 14.8479 61.7872 14.8479ZM61.7722 13.1379C62.3022 13.1379 62.7922 13.0479 63.2422 12.8679C63.6922 12.6879 64.0822 12.4329 64.4122 12.1029C64.7422 11.7629 64.9972 11.3729 65.1772 10.9329C65.3672 10.4829 65.4622 9.98785 65.4622 9.44785C65.4622 8.90785 65.3672 8.41785 65.1772 7.97785C64.9972 7.52785 64.7422 7.13785 64.4122 6.80785C64.0822 6.46785 63.6922 6.20785 63.2422 6.02785C62.7922 5.84785 62.3022 5.75785 61.7722 5.75785C61.2422 5.75785 60.7522 5.84785 60.3022 6.02785C59.8622 6.20785 59.4722 6.46785 59.1322 6.80785C58.8022 7.13785 58.5422 7.52785 58.3522 7.97785C58.1722 8.41785 58.0822 8.90785 58.0822 9.44785C58.0822 9.97785 58.1722 10.4679 58.3522 10.9179C58.5422 11.3679 58.8022 11.7629 59.1322 12.1029C59.4622 12.4329 59.8522 12.6879 60.3022 12.8679C60.7522 13.0479 61.2422 13.1379 61.7722 13.1379Z" fill="white"/>
<path d="M42.541 14.6982V4.19824H44.146L48.736 11.8632H47.896L52.411 4.19824H54.016L54.031 14.6982H52.186L52.171 7.09324H52.561L48.721 13.4982H47.851L43.951 7.09324H44.401V14.6982H42.541Z" fill="white"/>
</svg>
